<svg xmlns="http://www.w3.org/2000/svg" version="1.1" xmlns:xlink="http://www.w3.org/1999/xlink" xmlns:svgjs="http://svgjs.com/svgjs" width="1628.513" height="1628.513"><svg width="1628.513" height="1628.513" xmlns="http://www.w3.org/2000/svg" xml:space="preserve" enable-background="new 0 0 1510.102 1631.513" version="1.1">

 <g>
  <title>Layer 1</title>
  <path id="SvgjsPath1003" d="m34.25609,76.41062c0,-29.34247 24.65753,-54 54,-54l1452.00085,0c29.34247,0 54,24.65753 54,54l0,1472.00085c0,29.34247 -24.65753,54 -54,54l-1452.00085,0c-29.34247,0 -54,-24.65753 -54,-54l0,-1472.00085z" opacity="undefined" stroke="#000" fill="#673ab8"></path>
  <g id="SvgjsG1002">
   <path id="SvgjsPath1001" d="m1157.12675,89.50181c31.51422,-13.50931 67.2283,-11.7277 80.00202,-6.8548c11.93909,4.37903 21.97953,12.43833 31.7086,20.3696c13.59453,10.69697 36.19865,80.0983 20.81878,98.97988c-15.0123,19.55196 -10.43012,43.15645 -12.59132,47.01233c-0.70934,1.35633 -2.1004,2.10903 -3.32286,2.91844c2.85764,6.53104 5.96033,12.96239 8.78389,19.51721c0.7333,-0.36218 1.44356,-0.80941 2.12895,-1.29505c0.82726,2.41724 5.30995,12.98251 7.34125,14.56657c9.61207,7.85078 19.05556,22.05244 21.99887,36.12056c8.06533,0 12.15097,9.28028 14.86859,13.82393c1.94194,0.74264 4.23856,0.87068 5.98428,2.24256c1.93273,0.90452 3.09716,3.24677 5.38457,3.33731c8.93313,0.84233 17.40011,4.33147 25.11538,8.75897c14.54708,8.64556 22.00348,16.04545 27.87261,33.16005c5.34127,16.08021 6.53978,33.10792 10.55817,49.50183c4.30581,15.35677 5.12109,31.47996 4.15197,47.32603c-2.09026,31.12602 -8.82903,31.14248 -6.83273,44.57954c3.7153,25.99703 1.16811,26.22842 0.0866,33.92647c-5.76043,33.08048 -9.94648,79.95654 -6.48727,114.58907c3.23627,27.51158 8.71019,30.86262 12.73963,36.88698c18.46505,26.56499 27.32817,58.59279 43.64308,88.47406c13.54755,27.81431 21.81002,65.7494 27.72337,89.08866c2.91752,11.87312 15.12469,30.08797 7.71527,34.51181c-8.24774,4.59853 -35.83569,10.34028 -45.36393,12.18591c-29.90668,6.00698 -27.60177,2.70534 -29.45988,5.91735c-0.54721,0.95757 -48.43161,89.51394 -117.12835,196.44155c-11.36885,17.57006 -22.71282,35.20689 -35.51049,51.79652c-0.21096,0.53778 0.37402,0.99964 0.57024,1.51364c13.40199,23.33102 24.79664,61.20301 23.96016,90.25475c0.07186,1.42309 -0.34085,3.07483 0.68079,4.2894c16.30293,22.92312 21.27203,58.11263 25.96936,72.31337c9.2399,25.13092 19.98415,73.69988 20.43555,75.40283c5.01884,6.59598 26.35075,25.35774 10.0211,77.72587c-2.1916,8.06297 -1.22339,-3.09678 -1.50068,27.99997c-16.68801,10.48296 -62.43609,3.34372 -82.58606,0.03293c-2.48363,-0.15274 -3.19297,-3.82296 -5.83044,-3.29433c-12.4126,1.21182 -29.04073,-0.68685 -36.93471,-2.26085c-35.3502,-9.45131 -51.04513,-24.7157 -50.38369,-28.46641c0.53707,-7.94499 5.47116,-16.1799 13.50701,-18.47001c9.4223,-2.34225 19.179,-2.7657 28.82147,-3.51291c-5.9502,-7.90292 -57.66321,-106.33953 -65.47797,-125.21379c-90.65231,127.92553 -92.78679,130.20833 -97.96777,139.2563c-3.44723,5.40427 -9.14869,14.50987 -20.56545,9.07816c-14.41811,-7.43556 -28.6925,-15.14733 -43.13917,-22.51613c-0.44587,11.22926 -1.33301,22.44022 -1.89404,33.6649c-11.9004,0.68868 -68.54197,0.10884 -77.92097,1.81819c-33.1236,4.55371 -122.24391,7.63128 -139.99501,0.56155c-1.67847,-0.62832 -2.55548,-2.49407 -4.37306,-2.79954c-18.19053,-5.19575 -20.93946,-13.99587 -27.2821,-23.81118c-3.21692,-5.26983 -3.941,-11.53838 -4.31502,-17.56092c0,-4.77413 -0.1824,-9.55374 0.1778,-14.31415c0.28926,-7.45477 -0.58498,-20.5699 -5.20216,-26.44335c-3.47394,-4.55828 -9.79908,-1.38559 -13.98697,2.36145c-11.47847,10.57899 -14.7737,23.15817 -25.09604,48.42628c-1.20865,2.8846 -2.29201,5.84053 -3.79269,8.59708c-1.91891,3.90161 -11.5706,0.11432 -9.57983,-4.25556c5.9502,-13.90441 9.90134,-28.61366 12.12149,-43.54698c3.20494,-24.20994 0.1216,-25.95588 -0.45509,-32.7933c-1.69321,-16.52012 6.73324,-39.33715 12.37575,-48.36409c6.52596,-10.75367 16.55627,-18.66482 25.92514,-26.84302c-0.1778,-12.34779 -6.12431,-63.75287 -15.76033,-124.32847c-4.28831,-26.04642 -12.28731,-50.38532 -6.75627,-94.12984c4.28462,-33.24694 14.39139,-57.2264 21.4139,-68.0194c19.04358,-30.45929 -9.30715,-39.94717 -36.27788,-58.8132c-6.99118,-4.72657 -13.77048,-9.75861 -20.73772,-14.51444c-9.19291,63.44008 -31.07848,221.49016 -29.59807,285.81555c-127.1218,-16.06283 -151.09302,-14.71839 -181.91632,-16.34635c-6.88064,-0.20944 -13.75667,-0.72344 -20.6373,-0.70423c-5.37996,11.89599 -10.41906,23.93922 -15.64518,35.8974c-3.54856,-12.17676 -7.39376,-24.31512 -12.63461,-35.8974c-42.66381,2.17031 -62.26934,17.1274 -68.80083,20.30284c3.0078,-32.22626 9.39558,-81.12904 17.54383,-111.55174c0.95531,-5.24148 3.57344,1.33438 -10.92758,-26.30525c-22.09837,-43.33845 -53.48269,-74.12607 -90.13827,-93.3058c-37.30873,-19.3471 -61.00358,-18.68951 -70.64237,-19.11205c-6.27631,0.14725 -12.61066,-0.40516 -18.82894,0.62832c2.04789,6.03168 9.54022,13.49376 11.27304,21.03542c0.34546,1.41852 0.16766,3.56047 -1.58727,3.91808c-3.45736,0.58533 -6.72219,-1.09018 -9.8866,-2.18951c-7.84792,-3.29159 -22.781,-10.88171 -19.66357,-18.75536c14.19978,-37.72291 24.44197,-144.12006 28.32309,-157.95496c3.00504,-7.80231 9.79447,-40.73006 28.79752,-65.20614c14.4264,-17.94779 40.08162,-35.35048 67.95239,-42.06626c8.95339,-2.42639 14.27071,-1.8438 19.90861,-5.3933c16.86949,-10.1345 30.59023,-32.3854 57.23116,-31.98847c8.2938,-0.07591 40.32758,-25.44188 71.75981,-41.33368c2.05249,-0.88989 3.15059,-2.92301 4.52138,-4.56011c33.70766,-42.32418 56.00869,-57.74954 124.04675,-75.69275c15.9326,-4.54914 2.50297,3.9135 57.17404,-30.44191c19.04819,-11.8155 27.94078,-13.81844 37.80711,-23.01549c0.43666,-8.47362 -0.88714,-16.87955 -2.18146,-25.22421c-8.93221,-54.0592 -20.83076,-77.41766 -15.49226,-121.8152c3.9668,-34.21914 12.68712,-51.27338 47.21467,-105.41123c0.56379,-1.29231 2.16672,-17.81151 2.2395,-18.73616c1.43343,0.88532 2.84843,1.81362 4.32055,2.65595c1.11745,-3.09404 1.85535,-6.31245 2.95345,-9.41564c-11.74471,4.42201 -28.62802,3.05745 -35.6063,1.40937c-8.1943,-1.93983 -6.57387,-7.28923 -9.90134,-13.95197c-14.00908,-2.43096 -16.95148,-18.0237 -15.84232,-32.18419c1.47949,-19.49435 24.63727,-14.8757 42.39113,-18.05113c-0.52786,-3.47542 -0.85398,-7.1932 0.59972,-10.49667c2.00919,-5.03661 6.84194,-8.37301 11.85249,-10.07779c1.01151,-9.88207 3.69688,-19.48886 6.30487,-29.04717c4.66969,-17.38989 17.45262,-32.18053 30.20239,-44.20365c13.88103,-12.19506 25.74274,-20.41716 60.36241,-16.11313c3.0207,0.47558 6.0847,0.89995 9.1533,0.51857c15.47752,-0.3951 30.51929,5.88352 42.52563,15.31378c0.959,0.62832 1.75954,1.87124 3.05386,1.70387c7.47022,-0.58533 15.24721,-0.26614 22.22457,2.709c4.51216,1.78984 7.44627,6.03168 9.2878,10.31559c2.66603,6.16429 2.8383,13.01452 2.39242,19.60775c-0.62183,6.7478 -2.16396,13.33737 -9.49876,24.48706c-1.28511,1.48254 -0.0608,2.40718 1.60109,36.21567c-5.64619,19.31783 -7.26755,15.7601 1.50068,43.52777c0.9203,2.98703 2.86501,13.35749 -2.2874,15.75644c-4.34911,2.33768 -9.35966,3.13245 -14.24031,3.40316c-0.79133,3.04648 -1.33301,6.15515 -1.81758,9.26382c-0.34546,2.08068 -0.23491,4.25098 -0.94978,6.25941c-0.56563,1.11854 -1.57714,1.9188 -2.42651,2.81326c-0.1778,1.70387 0.47443,3.82753 -1.04559,5.09332c-1.48594,1.72308 -3.88849,1.81362 -5.97415,2.10903c-1.52094,14.8318 -8.51213,19.48611 -22.25774,20.05499c-21.23241,-0.54692 -33.32995,-9.38728 -34.79102,-10.15828c-4.13815,6.67372 -7.88754,13.6904 -9.85804,21.32626c-3.49237,13.41877 -0.38231,18.94925 0.92583,22.45851c16.23476,43.0028 15.46923,40.7328 16.82527,45.01763c-10.48079,-15.88906 -26.37562,-27.28934 -30.85923,-29.36087c4.84381,6.03534 26.82702,27.21434 31.08493,29.852c0.70474,0.88532 0.70934,2.27091 1.72085,2.97057c15.21681,11.85209 40.14887,29.02979 57.75349,39.32434c15.4508,8.85317 18.64745,9.98908 33.68831,7.24076c39.45058,-7.92578 20.70179,-6.53836 99.9005,-16.37562c15.65808,-1.92154 68.64607,-7.58098 71.75428,-14.13763c3.49052,-5.79297 8.01743,-10.88171 11.67101,-16.56128c0.99216,-2.67058 0.99769,-5.60731 2.08566,-8.26418c8.92299,14.41383 28.47141,28.01643 43.89641,34.75508c-9.18646,6.44233 -65.88608,40.73463 -71.61057,45.57918c6.54255,-0.27255 14.98558,-3.74888 30.10658,-5.59817c1.78349,-0.06676 3.04926,-1.39017 4.37767,-2.39895c7.20214,-5.58353 17.2518,-7.22155 25.88737,-4.29397c0.64762,0.10518 1.45738,0.64295 2.0571,0.08597c8.95155,-6.97827 15.82298,-16.17075 21.93162,-25.61017c-3.88389,-2.91295 -8.16114,-5.28904 -12.40891,-7.6258c-5.31824,-5.17471 -27.70587,-18.27521 -43.00467,-34.17432c-0.43666,-0.42803 -0.93965,-0.76185 -1.44356,-1.03805c-2.02301,0.20029 -3.97509,1.59503 -6.02205,0.79935c-1.89865,-0.70972 -3.98891,-1.99471 -4.33437,-4.14581c-0.81989,-3.87052 -0.23491,-7.93493 1.03546,-11.64356c0.85398,-2.53705 2.74249,-4.54091 4.96725,-5.98869c-2.56561,-8.41691 -0.60801,-12.59107 6.44398,-18.08406c-2.66603,-7.38343 -0.45048,-16.72773 6.48727,-21.00249c0.55274,-6.82919 2.03867,-15.89363 8.14179,-19.43124c6.74798,-4.17507 23.16607,0.96763 30.5718,3.65102c2.26345,1.01427 4.64114,-0.28078 6.94789,-0.514c4.91474,-0.66673 10.2514,-1.01427 14.84924,1.20451c2.69182,1.33072 7.9207,4.88113 7.11094,7.53983c-0.26347,1.43773 -1.70703,2.07519 -2.78579,2.82789c19.01871,3.74065 28.82332,24.89588 24.27154,29.93249c-1.20312,1.3042 -3.08795,1.45144 -4.71299,1.78527c11.14499,4.27934 10.6853,3.16903 9.76684,21.71587c9.61391,-9.21626 19.89387,-17.7228 30.15449,-26.20556c1.54397,-6.12131 2.51218,-12.40084 3.87928,-18.57427c1.54766,-6.36642 0.4993,-16.1113 -5.37535,-16.75608c-6.54439,0.02378 -13.0897,0.50942 -19.63961,0.36675c-28.48891,-0.31096 -31.68833,1.47705 -34.92091,-5.04576c-4.61074,-9.76867 -1.13311,-21.1598 -5.0345,-23.63466c-1.79823,-1.22829 -3.56238,-2.61296 -4.73234,-4.465c-0.39797,-1.66088 0.67618,-3.37481 0.38876,-5.04576c-3.27864,-7.22704 -2.65774,-2.52516 -2.22015,-20.05499c-4.9,-1.09018 -9.80553,-2.15201 -14.74883,-2.98429c-3.60568,-1.09018 -4.70839,-5.54055 -3.62963,-8.78274c3.88849,-10.87257 7.94465,-21.69209 11.79538,-32.57929c-7.04554,-2.95045 -4.19803,-2.06056 -2.31596,-38.56798c-0.08107,-2.91295 0.63288,-5.84053 0.05804,-8.73976c-6.95433,-1.83923 -13.28868,-11.05731 -7.44627,-22.19237c8.47528,-15.61926 21.97216,-24.44316 40.26678,-36.65833c7.17082,-5.05399 14.80963,-9.48149 22.9026,-12.91392m-488.07009,184.69829c15.13021,12.25267 55.51031,32.14669 84.6625,33.81215c-4.35648,-1.97733 -31.03518,-4.99363 -80.32261,-31.73696c-1.40579,-0.78471 -2.78671,-1.6371 -4.3399,-2.07519m488.73245,120.49179c-2.96266,34.36181 -6.93499,78.7374 -20.78562,107.81018c-4.11235,-5.43903 1.6232,-39.67463 2.26345,-43.99421c2.64668,2.33768 5.15426,4.82717 7.77699,7.1932c-9.47389,-15.68602 -14.58577,-20.36869 -22.20523,-25.98606c-7.06765,-5.07411 -14.5959,-9.5638 -22.4687,-13.27152c0.93504,1.09476 2.09579,1.96635 3.22245,2.87088c10.93679,8.74433 21.62486,17.80328 31.90021,27.30946c-1.71256,11.24938 -7.55682,43.20035 -2.49376,47.74034c0.92583,0.93288 2.31596,0.63289 3.48592,0.44723c0.50391,0.43809 1.01703,0.87617 1.57714,1.29505c-0.39797,-0.62832 -0.81528,-1.22829 -1.20312,-1.83283c13.68297,-22.74752 19.15873,-77.11219 21.0537,-103.4403c9.95477,6.72768 89.66107,101.5837 141.73521,124.74735c-2.12895,-2.10903 -4.92395,-3.38487 -7.274,-5.21221c-44.82409,-31.15254 -82.08307,-73.35508 -98.95072,-89.79746c-12.15005,-12.36791 -25.14394,-23.86423 -37.63392,-35.87911m-488.62743,35.08342c1.25102,1.99745 24.47421,31.12144 75.74872,59.10312c19.51986,10.55795 39.8163,19.8739 61.03859,26.54304c0.89175,0.24785 0.69,1.39474 0.89635,2.10446c3.49697,30.00108 -1.836,62.30051 -11.40662,90.66906c4.44307,-6.48257 16.83172,-50.51793 14.66223,-80.2108c0.05251,-4.15587 -0.86779,-8.27332 -0.65683,-12.42462c59.77466,11.82739 155.62361,5.889 164.51528,3.21293c45.42657,-13.75168 88.19448,-46.32365 89.90796,-47.8693c12.76543,6.23472 19.6562,2.94039 22.92931,2.21329c1.5016,0.26431 10.11322,4.06807 18.65667,-0.35669c5.38364,-2.93856 6.49925,-7.30478 0.98755,-11.92434c-5.93269,-4.39457 -19.21217,-7.59562 -26.47695,-8.01175c0.9332,0.30364 28.59946,5.03478 28.91728,13.75716c0.1649,5.25885 -11.24817,9.04432 -20.20525,5.28355c-1.25195,-0.59997 -2.65682,-0.66673 -3.90323,-0.07591c-7.0004,2.80869 -14.86859,0.514 -21.0537,-3.19921c-24.57739,18.34929 -68.67555,47.63059 -99.23906,50.30209c-39.35109,2.62394 -63.0008,2.12824 -67.63088,2.24713c1.9659,-0.96123 4.04234,-1.66088 6.11326,-2.37517c40.15163,-14.72754 108.53699,-50.40635 113.85799,-54.10035c-1.20312,0.31919 -2.30583,0.88532 -3.40946,1.40937c-131.42393,61.15454 -104.00917,46.70412 -122.33511,54.70947c-4.31502,0.36675 -44.7421,-0.59174 -76.96197,-6.21185c-7.3652,-1.17067 -14.29374,-3.96015 -21.2361,-6.53561c-84.00843,-32.34699 -120.51661,-75.72842 -123.71603,-78.25907m596.22293,27.49969c-2.9774,5.08874 -5.56697,10.49119 -6.72219,16.29879c-1.0502,5.13173 -1.97603,10.36772 -1.80745,15.61834c1.1414,-1.81819 1.14601,-4.08453 1.84614,-6.07924c6.17129,-22.58289 17.58436,-35.70625 20.46872,-40.06241c-5.83044,3.29524 -10.338,8.58337 -13.78522,14.22452m-125.09234,49.14057c0.67342,0.9155 38.38288,44.98104 55.94605,62.34532c0.78488,0.91458 30.77079,32.40918 47.42102,47.17879c7.0916,6.42586 15.21405,11.56765 22.90997,17.23167c6.54439,4.76041 14.09199,9.66806 22.58385,8.97755c13.46924,-1.02799 27.54097,-11.01341 37.40454,-20.32113c9.27951,-9.41198 27.49583,-31.52752 34.89696,-42.46136c10.23206,-14.84826 15.07126,-33.04847 15.84232,-38.06313c-1.01611,2.24164 -1.54397,4.67444 -2.58957,6.91151c-13.86629,32.24455 -61.02569,94.48287 -91.26953,88.6213c-21.43508,-3.74796 -126.17018,-114.1455 -134.0439,-121.52985c-3.10361,-2.89283 -5.64435,-6.3966 -9.10171,-8.89067m-36.75231,60.12197c-56.7687,28.38135 -62.49228,39.74322 -246.93368,43.5799c-1.57438,-0.04299 -35.8928,1.09018 -60.92804,-1.70936c0,0 -5.02621,11.05731 -11.49321,22.38717c-23.16515,40.40995 -41.09128,56.92367 -55.34172,69.29067c-13.88472,12.06793 -45.40999,37.14398 -59.57568,56.79929c44.61958,53.0248 97.13498,135.88789 132.27054,195.16113c9.43612,13.83307 18.64745,27.86644 26.51104,42.65709c6.79496,14.48792 1.51726,33.32833 -5.9935,47.37451c-24.94956,40.61756 -30.92187,112.48462 -35.15122,162.86719c-7.13858,84.96937 -2.67985,93.03966 -0.15384,141.5702c1.06125,24.0819 2.17962,71.82864 -5.93085,95.00052c-4.25791,13.59254 -3.92995,33.67862 4.42557,42.78055c11.34213,0.1006 8.00822,0.20304 11.1238,-1.70387c4.34358,-3.40591 26.44932,-13.75899 28.30835,-16.64176c6.71297,-9.59672 16.2928,-17.24173 27.29684,-21.42137c0.9636,-0.41888 2.1483,-0.66124 2.64668,-1.69015c3.0686,-5.03661 6.2238,-10.02018 9.27306,-15.07142c1.30998,-2.03038 -0.10318,-0.98866 12.81702,-3.8321c6.49741,-1.54839 4.02576,0.09786 10.15559,-5.24605c15.94918,-15.90186 9.56693,-9.56288 13.07496,-16.56128c5.73003,-13.19561 16.90173,-23.57247 29.71414,-29.96084c1.81205,-1.01885 4.27172,-1.31426 5.32192,-3.31354c2.9774,-4.41287 7.07225,-7.89285 10.74518,-11.71033c2.38782,-2.50413 4.09024,-5.5314 5.88295,-8.45898c8.7627,-13.95654 23.03617,-20.95585 24.74136,-22.55454c0,0 10.19244,-22.98897 30.87396,-57.42761c3.54027,-5.88717 8.05244,-42.11382 40.52104,-74.45532c0.85306,-0.91367 1.9272,-1.67552 2.54627,-2.77485c-0.67526,-5.86705 -2.46704,-16.52927 11.09985,-33.68319c1.19391,-1.65174 1.36157,-3.75619 2.03775,-5.61737c13.74285,-44.32254 48.53755,-117.21118 69.52492,-160.85419c14.48167,-30.42545 14.58301,-24.97636 17.49592,-61.66396c0.02395,-0.75179 0.20175,-1.71393 -0.60893,-2.0944c-1.50528,-1.44687 -4.23856,-2.17579 -4.33897,-4.57475c-3.3505,-30.54343 1.84706,-141.62141 -1.0502,-178.64741c-0.41271,-5.36952 -1.81297,-10.58722 -2.71393,-15.87991c-12.08464,-60.32226 -11.69404,-72.30697 -15.18088,-96.22424c-3.34681,-23.77734 -7.274,-47.46962 -11.45452,-71.11343c-3.95482,1.56668 -7.67105,3.69492 -11.55954,5.41799m-436.67029,195.67055c-5.04463,19.04163 -0.93228,27.02228 -4.05155,34.62613c-4.97738,12.56272 -21.86253,31.91622 -45.23496,63.16845c-88.77301,118.22546 -82.78412,154.95787 -157.7019,307.50764c-18.84736,39.01064 -30.34794,59.22842 -34.81036,77.43961c0.12437,-0.257 0.36941,-0.76642 0.48917,-1.02342c6.00179,-19.2593 22.4125,-48.77108 31.69846,-67.47156c69.87591,-136.88753 70.25914,-176.04085 126.18584,-263.09456c0.83463,0.78105 1.57714,1.6618 2.26345,2.58919c13.133,17.49598 46.06129,46.14165 71.14075,60.06527c-1.49607,-1.81362 -3.59094,-2.97514 -5.36983,-4.46957c-23.12093,-18.11241 -46.38004,-36.29707 -66.58621,-57.6654c-0.45048,-0.50028 -1.40487,-1.12311 -0.66605,-1.79899c50.58636,-78.92215 82.62567,-103.34701 80.60634,-125.60432c-0.14832,-9.98268 0.41732,-20.25985 4.22935,-29.62336c-1.30077,1.499 -1.56424,3.54127 -2.19252,5.35489m674.15864,129.98334c0.05712,1.55662 1.43803,-0.73258 0,0m1.39474,0.32376c1.40671,1.21365 14.45127,3.70589 16.62352,4.06532c21.29874,2.68522 42.38652,6.75511 63.46417,10.78202c21.72988,4.35525 43.9305,6.01247 65.57931,10.81495c-1.38552,-0.75179 -2.92489,-1.11854 -4.40162,-1.58955c-29.26919,-9.10925 -42.2769,-11.55576 -59.51396,-15.19489c-33.93888,-6.89779 -42.46299,-7.60568 -73.21719,-8.7736c-2.85212,0.02378 -5.69502,-0.49479 -8.53424,-0.10426m-995.62226,258.05795c0.60432,1.88313 45.77756,85.83914 50.46107,92.46804c-2.92489,-10.16011 -38.64358,-78.27645 -50.46107,-92.46804m793.14602,204.77706c7.00132,-6.8548 113.55215,-157.96319 118.56177,-168.12787c-16.82619,20.53697 -113.28868,157.99977 -118.56177,168.12787z"></path>
   <path id="SvgjsPath1000" d="m195.58063,443.54163c5.46103,5.54603 10.41446,11.55759 15.63597,17.32221c21.23057,24.12488 -10.73228,57.57394 20.5461,87.66465c1.43803,1.50906 3.17454,2.98977 5.3514,3.21293c6.21643,-0.57619 5.87005,-7.18588 28.3277,-49.45884c2.24411,-0.11432 4.79959,-0.1189 6.51122,1.57125c1.33301,1.27584 2.71393,3.39402 1.66373,5.22227c-0.42745,0.9155 -19.7603,42.36716 -20.86669,45.09902c6.82444,20.63117 -1.26116,41.18826 -17.74097,51.69683c-6.33435,4.35525 -13.56505,7.13101 -20.57466,10.19669c3.75031,15.15465 16.18778,33.1317 25.2204,46.46998c19.61198,27.32775 31.11993,82.46616 30.71091,89.81209c-17.05742,1.30328 -36.96327,7.63769 -54.32101,19.40746c-32.20237,21.90336 -43.96827,47.8757 -52.55133,89.19292c-10.07545,-72.9426 -2.91476,-79.97849 -2.09579,-112.58522c0.93044,-10.07962 0.75541,-62.83371 -4.41636,-103.19245c-2.71301,-19.57391 -3.91337,-20.65587 -6.52136,-28.2524c-8.0727,-22.90208 -17.36787,-46.01818 -18.20158,-67.00513c-1.47765,-39.73499 6.77562,-38.88351 6.06996,-63.38246c-0.11976,-1.54748 -0.21096,-3.57968 -1.8793,-4.28391c-2.22015,-0.88074 -1.85535,-3.71778 -1.34775,-5.57439c4.16026,-12.81606 6.09299,-30.16571 -4.17592,-38.94388c-2.25332,-1.88496 -4.42557,-4.00862 -5.70147,-6.67829c-6.9009,-14.34981 37.55746,-20.19126 70.35679,12.48864z"></path>
  </g>
 </g>
</svg><style>@media (prefers-color-scheme: light) { :root { filter: none; } }
@media (prefers-color-scheme: dark) { :root { filter: contrast(1) brightness(1); } }
</style></svg>